<mxfile host="app.diagrams.net" modified="2023-11-17T12:30:58.068Z" agent="Mozilla/5.0 (Macintosh; Intel Mac OS X 10_15_7) AppleWebKit/537.36 (KHTML, like Gecko) Chrome/119.0.0.0 Safari/537.36" etag="p9R-poCBMcEozIiMcoCU" version="22.1.2" type="onedrive">
  <diagram name="Pagina-1" id="jfv8Y_WwAxeGZM0Akgd_">
    <mxGraphModel grid="1" page="1" gridSize="10" guides="1" tooltips="1" connect="1" arrows="1" fold="1" pageScale="1" pageWidth="1654" pageHeight="2336" math="0" shadow="0">
      <root>
        <mxCell id="0" />
        <mxCell id="1" parent="0" />
        <mxCell id="lMBo87I_9kjcxqa2m74v-66" value="Day_Scan_1" style="rounded=1;whiteSpace=wrap;html=1;" vertex="1" parent="1">
          <mxGeometry x="270" y="100" width="120" height="60" as="geometry" />
        </mxCell>
        <mxCell id="lMBo87I_9kjcxqa2m74v-68" value="S1" style="text;html=1;strokeColor=none;fillColor=none;align=center;verticalAlign=middle;whiteSpace=wrap;rounded=0;" vertex="1" parent="1">
          <mxGeometry x="340" y="50" width="60" height="30" as="geometry" />
        </mxCell>
        <mxCell id="lMBo87I_9kjcxqa2m74v-82" style="edgeStyle=orthogonalEdgeStyle;rounded=0;orthogonalLoop=1;jettySize=auto;html=1;entryX=0;entryY=0.75;entryDx=0;entryDy=0;" edge="1" parent="1" source="lMBo87I_9kjcxqa2m74v-70" target="lMBo87I_9kjcxqa2m74v-66">
          <mxGeometry relative="1" as="geometry">
            <Array as="points">
              <mxPoint x="190" y="145" />
            </Array>
          </mxGeometry>
        </mxCell>
        <mxCell id="lMBo87I_9kjcxqa2m74v-85" style="edgeStyle=orthogonalEdgeStyle;rounded=0;orthogonalLoop=1;jettySize=auto;html=1;entryX=0.25;entryY=0;entryDx=0;entryDy=0;" edge="1" parent="1" source="lMBo87I_9kjcxqa2m74v-70" target="lMBo87I_9kjcxqa2m74v-79">
          <mxGeometry relative="1" as="geometry" />
        </mxCell>
        <mxCell id="lMBo87I_9kjcxqa2m74v-70" value="Cloudy_Sleep" style="rounded=1;whiteSpace=wrap;html=1;" vertex="1" parent="1">
          <mxGeometry x="130" y="290" width="120" height="60" as="geometry" />
        </mxCell>
        <mxCell id="lMBo87I_9kjcxqa2m74v-84" style="edgeStyle=orthogonalEdgeStyle;rounded=0;orthogonalLoop=1;jettySize=auto;html=1;entryX=1;entryY=0.75;entryDx=0;entryDy=0;" edge="1" parent="1" source="lMBo87I_9kjcxqa2m74v-71" target="lMBo87I_9kjcxqa2m74v-66">
          <mxGeometry relative="1" as="geometry">
            <Array as="points">
              <mxPoint x="470" y="145" />
            </Array>
          </mxGeometry>
        </mxCell>
        <mxCell id="AfgoIIakImWYDUaaUt84-32" style="edgeStyle=orthogonalEdgeStyle;rounded=0;orthogonalLoop=1;jettySize=auto;html=1;entryX=0.75;entryY=0;entryDx=0;entryDy=0;" edge="1" parent="1" source="lMBo87I_9kjcxqa2m74v-71" target="lMBo87I_9kjcxqa2m74v-79">
          <mxGeometry relative="1" as="geometry" />
        </mxCell>
        <mxCell id="lMBo87I_9kjcxqa2m74v-71" value="Sunny_Sleep" style="rounded=1;whiteSpace=wrap;html=1;" vertex="1" parent="1">
          <mxGeometry x="420" y="290" width="120" height="60" as="geometry" />
        </mxCell>
        <mxCell id="lMBo87I_9kjcxqa2m74v-72" value="S2" style="text;html=1;strokeColor=none;fillColor=none;align=center;verticalAlign=middle;whiteSpace=wrap;rounded=0;" vertex="1" parent="1">
          <mxGeometry x="60" y="305" width="60" height="30" as="geometry" />
        </mxCell>
        <mxCell id="lMBo87I_9kjcxqa2m74v-73" value="S3" style="text;html=1;strokeColor=none;fillColor=none;align=center;verticalAlign=middle;whiteSpace=wrap;rounded=0;" vertex="1" parent="1">
          <mxGeometry x="570" y="305" width="60" height="30" as="geometry" />
        </mxCell>
        <mxCell id="lMBo87I_9kjcxqa2m74v-76" value="S4" style="text;html=1;strokeColor=none;fillColor=none;align=center;verticalAlign=middle;whiteSpace=wrap;rounded=0;" vertex="1" parent="1">
          <mxGeometry x="310" y="590" width="60" height="30" as="geometry" />
        </mxCell>
        <mxCell id="AfgoIIakImWYDUaaUt84-31" style="edgeStyle=orthogonalEdgeStyle;rounded=0;orthogonalLoop=1;jettySize=auto;html=1;entryX=0.75;entryY=1;entryDx=0;entryDy=0;" edge="1" parent="1" source="lMBo87I_9kjcxqa2m74v-79" target="lMBo87I_9kjcxqa2m74v-71">
          <mxGeometry relative="1" as="geometry" />
        </mxCell>
        <mxCell id="lMBo87I_9kjcxqa2m74v-79" value="Night_Scan" style="rounded=1;whiteSpace=wrap;html=1;" vertex="1" parent="1">
          <mxGeometry x="270" y="490" width="120" height="60" as="geometry" />
        </mxCell>
        <mxCell id="lMBo87I_9kjcxqa2m74v-80" value="S5" style="text;html=1;strokeColor=none;fillColor=none;align=center;verticalAlign=middle;whiteSpace=wrap;rounded=0;" vertex="1" parent="1">
          <mxGeometry x="300" y="730" width="60" height="30" as="geometry" />
        </mxCell>
        <mxCell id="lMBo87I_9kjcxqa2m74v-81" style="edgeStyle=orthogonalEdgeStyle;rounded=0;orthogonalLoop=1;jettySize=auto;html=1;entryX=0.167;entryY=0;entryDx=0;entryDy=0;entryPerimeter=0;" edge="1" parent="1" source="lMBo87I_9kjcxqa2m74v-66" target="lMBo87I_9kjcxqa2m74v-70">
          <mxGeometry relative="1" as="geometry" />
        </mxCell>
        <mxCell id="lMBo87I_9kjcxqa2m74v-83" style="edgeStyle=orthogonalEdgeStyle;rounded=0;orthogonalLoop=1;jettySize=auto;html=1;entryX=0.625;entryY=-0.1;entryDx=0;entryDy=0;entryPerimeter=0;" edge="1" parent="1" source="lMBo87I_9kjcxqa2m74v-66" target="lMBo87I_9kjcxqa2m74v-71">
          <mxGeometry relative="1" as="geometry" />
        </mxCell>
        <mxCell id="AfgoIIakImWYDUaaUt84-12" value="1/2*1/2" style="text;html=1;strokeColor=none;fillColor=none;align=center;verticalAlign=middle;whiteSpace=wrap;rounded=0;" vertex="1" parent="1">
          <mxGeometry x="90" y="180" width="60" height="30" as="geometry" />
        </mxCell>
        <mxCell id="AfgoIIakImWYDUaaUt84-14" value="1/8*1/8" style="text;html=1;strokeColor=none;fillColor=none;align=center;verticalAlign=middle;whiteSpace=wrap;rounded=0;" vertex="1" parent="1">
          <mxGeometry x="200" y="210" width="60" height="30" as="geometry" />
        </mxCell>
        <mxCell id="AfgoIIakImWYDUaaUt84-15" value="1/18*7/8" style="text;html=1;strokeColor=none;fillColor=none;align=center;verticalAlign=middle;whiteSpace=wrap;rounded=0;" vertex="1" parent="1">
          <mxGeometry x="230" y="390" width="60" height="30" as="geometry" />
        </mxCell>
        <mxCell id="AfgoIIakImWYDUaaUt84-21" value="1/2*1/2" style="text;html=1;strokeColor=none;fillColor=none;align=center;verticalAlign=middle;whiteSpace=wrap;rounded=0;" vertex="1" parent="1">
          <mxGeometry x="100" y="420" width="60" height="30" as="geometry" />
        </mxCell>
        <mxCell id="AfgoIIakImWYDUaaUt84-23" style="edgeStyle=orthogonalEdgeStyle;rounded=0;orthogonalLoop=1;jettySize=auto;html=1;entryX=0.346;entryY=1.06;entryDx=0;entryDy=0;entryPerimeter=0;" edge="1" parent="1" source="lMBo87I_9kjcxqa2m74v-79" target="lMBo87I_9kjcxqa2m74v-70">
          <mxGeometry relative="1" as="geometry" />
        </mxCell>
        <mxCell id="AfgoIIakImWYDUaaUt84-28" value="1/3*1/4" style="text;html=1;strokeColor=none;fillColor=none;align=center;verticalAlign=middle;whiteSpace=wrap;rounded=0;" vertex="1" parent="1">
          <mxGeometry x="410" y="210" width="60" height="30" as="geometry" />
        </mxCell>
        <mxCell id="AfgoIIakImWYDUaaUt84-30" value="1/2*1/2" style="text;html=1;strokeColor=none;fillColor=none;align=center;verticalAlign=middle;whiteSpace=wrap;rounded=0;" vertex="1" parent="1">
          <mxGeometry x="500" y="180" width="60" height="30" as="geometry" />
        </mxCell>
        <mxCell id="AfgoIIakImWYDUaaUt84-34" value="1/18*3/4" style="text;html=1;strokeColor=none;fillColor=none;align=center;verticalAlign=middle;whiteSpace=wrap;rounded=0;" vertex="1" parent="1">
          <mxGeometry x="360" y="390" width="60" height="30" as="geometry" />
        </mxCell>
        <mxCell id="AfgoIIakImWYDUaaUt84-35" value="1/2*1/2" style="text;html=1;strokeColor=none;fillColor=none;align=center;verticalAlign=middle;whiteSpace=wrap;rounded=0;" vertex="1" parent="1">
          <mxGeometry x="510" y="420" width="60" height="30" as="geometry" />
        </mxCell>
      </root>
    </mxGraphModel>
  </diagram>
</mxfile>
